<svg width="512" height="512" viewBox="0 0 512 512" fill="none" xmlns="http://www.w3.org/2000/svg" xmlns:xlink="http://www.w3.org/1999/xlink" class=""><rect id="«r9»" width="512" height="512" x="0" y="0" rx="128" fill="url(#«ra»)" stroke="#FFFFFF" stroke-width="0" stroke-opacity="100%" paint-order="stroke"></rect><clipPath id="clip"><use xlink:href="#«r9»"></use></clipPath><defs><linearGradient id="«ra»" gradientUnits="userSpaceOnUse" gradientTransform="rotate(45)" style="transform-origin: center center;"><stop stop-color="#8E2DE2"></stop><stop offset="1" stop-color="#4A00E0"></stop></linearGradient><radialGradient id="«rb»" cx="0" cy="0" r="1" gradientUnits="userSpaceOnUse" gradientTransform="translate(256) rotate(90) scale(512)"><stop stop-color="white"></stop><stop offset="1" stop-color="white" stop-opacity="0"></stop></radialGradient></defs><svg xmlns="http://www.w3.org/2000/svg" fill="none" viewBox="0 0 16 16" width="352" height="352" x="80" y="80" style="color: rgb(255, 255, 255);" alignment-baseline="middle"><path fill="currentColor" d="M3.651 9.979c0 .867-.707 1.576-1.575 1.576A1.58 1.58 0 0 1 .5 9.979a1.58 1.58 0 0 1 1.576-1.576h1.575v1.576Zm.794 0a1.58 1.58 0 0 1 1.576-1.576 1.58 1.58 0 0 1 1.576 1.576v3.945A1.58 1.58 0 0 1 6.021 15.5a1.58 1.58 0 0 1-1.576-1.576V9.98ZM6.021 3.65a1.579 1.579 0 0 1-1.576-1.575A1.58 1.58 0 0 1 6.021.5a1.58 1.58 0 0 1 1.576 1.576v1.575H6.021Zm0 .794a1.58 1.58 0 0 1 1.576 1.576 1.58 1.58 0 0 1-1.576 1.577H2.076A1.58 1.58 0 0 1 .5 6.02a1.58 1.58 0 0 1 1.576-1.576h3.945Zm6.328 1.576c0-.867.707-1.576 1.575-1.576A1.58 1.58 0 0 1 15.5 6.021a1.58 1.58 0 0 1-1.576 1.577h-1.575V6.02Zm-.794 0a1.58 1.58 0 0 1-1.576 1.577A1.58 1.58 0 0 1 8.403 6.02V2.076A1.58 1.58 0 0 1 9.979.5a1.58 1.58 0 0 1 1.576 1.576v3.945ZM9.979 12.35c.867 0 1.576.707 1.576 1.575A1.58 1.58 0 0 1 9.979 15.5a1.58 1.58 0 0 1-1.576-1.576V12.35h1.576Zm0-.794a1.58 1.58 0 0 1-1.576-1.576 1.58 1.58 0 0 1 1.576-1.576h3.945A1.58 1.58 0 0 1 15.5 9.979a1.58 1.58 0 0 1-1.576 1.576H9.979Z"></path></svg></svg>